<svg xmlns="http://www.w3.org/2000/svg" class="ico svg-icon" viewBox="0 0 32 32" width="32"  height="32" ><g fill="#828282" id="icon-instagram"><path d="M16 8c-2.16 0-2.48 0-3.28.08-.88 0-1.44.16-1.92.4-.56.16-1.04.4-1.44.88-.48.4-.72.88-.96 1.36-.16.56-.32 1.12-.32 2C8 13.52 8 13.84 8 16s0 2.48.08 3.28c0 .88.16 1.44.4 1.92.24.56.48.96.96 1.44s.88.72 1.44.96c.48.16 1.12.32 1.92.4H16c2.16 0 2.48 0 3.28-.08.88 0 1.44-.16 1.92-.4.56-.24.96-.48 1.44-.96s.72-.88.96-1.44c.16-.48.32-1.12.4-1.92 0-.88.08-1.12.08-3.28s0-2.48-.08-3.28c0-.88-.16-1.44-.4-1.92-.24-.56-.48-.96-.96-1.44s-.88-.72-1.44-.96c-.48-.16-1.12-.32-1.92-.4C18.48 8 18.16 8 16 8zm0 1.44c2.16 0 2.4 0 3.2.08.8 0 1.2.16 1.52.24.4.16.64.32.88.64.24.24.48.56.56.88.16.32.32.72.32 1.52 0 .88.08 1.12.08 3.2 0 2.16 0 2.4-.08 3.2 0 .8-.16 1.2-.24 1.52-.16.4-.32.64-.56.88s-.56.48-.88.56c-.32.08-.72.24-1.52.24-.88 0-1.12.08-3.2.08s-2.4 0-3.2-.08c-.8 0-1.2-.16-1.52-.24-.48-.08-.72-.24-.96-.56-.24-.24-.48-.56-.56-.88-.16-.32-.32-.72-.32-1.52 0-.88-.08-1.12-.08-3.2 0-2.16 0-2.4.08-3.2 0-.8.16-1.2.24-1.52.16-.4.32-.64.64-.88.24-.24.56-.48.88-.56.32-.16.72-.32 1.52-.32.8-.08 1.04-.08 3.2-.08z"></path><path d="M16 18.64c-1.44 0-2.64-1.2-2.64-2.64s1.2-2.64 2.64-2.64 2.64 1.2 2.64 2.64-1.2 2.64-2.64 2.64zm0-6.72c-2.24 0-4.08 1.84-4.08 4.08s1.84 4.08 4.08 4.08 4.08-1.84 4.08-4.08-1.84-4.08-4.08-4.08zM21.2 11.76c0 .56-.4.96-.96.96s-.96-.4-.96-.96.4-.96.96-.96.96.4.96.96z"></path></g></svg>