<svg xmlns="http://www.w3.org/2000/svg" class="ico svg-icon" viewBox="0 0 32 32" width="32"  height="32" ><g fill="#0099cc" id="icon-call_v2"><path d="M12.855 18.573a20.99 20.99 0 003.057 2.61l3.303-2.422c.424-.304.99-.32 1.435-.04l3.213 2.062a1.46 1.46 0 01.215 2.394l-.562.448a4.568 4.568 0 01-4.781.55 22.215 22.215 0 01-6.743-4.77 20.51 20.51 0 01-4.313-6.752 3.898 3.898 0 011.187-4.491l.576-.429c.367-.28.836-.39 1.289-.302s.846.367 1.085.771l1.852 3.236a1.154 1.154 0 01-.203 1.41l-2.874 2.866a19.278 19.278 0 002.266 2.858z"></path></g></svg>