<svg xmlns="http://www.w3.org/2000/svg" class="svg-icon show-number ico" viewBox="0 0 32 32" width="32"  height="32" ><g id="icon-bag_v2"><path d="M13.004 11.4v-.704c-.086-1.727 1.238-3.2 3.029-3.295 1.725.095 3.049 1.568 2.964 3.265v.734H22.2v11.8a1.4 1.4 0 01-1.4 1.4h-9.6a1.4 1.4 0 01-1.4-1.4V11.4h3.204zm1.199 0h3.594v-.764c.053-1.068-.765-1.979-1.764-2.037-1.066.059-1.884.969-1.83 2.067v.734zM11 12.6v10.6c0 .11.09.2.2.2h9.6a.2.2 0 00.2-.2V12.6H11zm6.8 1H19l-.001 1.102c-.098 1.578-1.452 2.78-2.966 2.693-1.58.087-2.934-1.115-3.033-2.73V13.6h1.2l-.001 1.028c.057.919.847 1.62 1.834 1.569.921.051 1.711-.65 1.767-1.532V13.6z"></path></g></svg>