<svg xmlns="http://www.w3.org/2000/svg" class="ico svg-icon" viewBox="0 0 32 32" width="32"  height="32" ><g fill="#828282" id="icon-twitter"><path d="M24.88 10.8c.8-.48 1.44-1.2 1.68-2.16-.72.4-1.6.72-2.4.96-.72-.72-1.68-1.2-2.8-1.2a3.84 3.84 0 00-3.84 3.84c0 .32 0 .56.08.88-3.2-.16-6-1.68-7.92-4-.32.56-.48 1.2-.48 1.92 0 1.36.64 2.48 1.68 3.2-.64 0-1.2-.16-1.76-.48v.08c0 1.84 1.36 3.44 3.04 3.76-.32.08-.64.16-1.04.16-.24 0-.48 0-.72-.08a3.795 3.795 0 003.6 2.64A7.603 7.603 0 019.2 22c-.32 0-.64 0-.88-.08 1.68 1.12 3.68 1.76 5.92 1.76 7.04 0 10.88-5.84 10.88-10.88v-.48c.72-.56 1.44-1.2 1.92-2-.64.16-1.36.4-2.16.48z"></path></g></svg>